<?xml version="1.0" encoding="utf-8"?>
<!-- Generator: Adobe Illustrator 19.2.1, SVG Export Plug-In . SVG Version: 6.00 Build 0)  -->
<svg version="1.1" xmlns="http://www.w3.org/2000/svg" xmlns:xlink="http://www.w3.org/1999/xlink" x="0px" y="0px"
	 viewBox="0 0 664 951" style="enable-background:new 0 0 664 951;" xml:space="preserve">
<style type="text/css">
	.st0{fill:#FFFFFF;}
	.st1{fill:#E0E0E0;}
	.st2{fill:#F2E9E2;}
	.st3{fill:#777777;}
	.st4{fill:#666666;}
	.st5{fill:#D6D6D6;}
	.st6{fill:#FFBE88;}
	.st7{display:none;}
	.st8{display:inline;fill:#FFFFFF;}
	.st9{display:inline;fill:#DDDDDD;}
	.st10{display:inline;fill:#777777;}
	.st11{display:inline;fill:#666666;}
	.st12{display:inline;opacity:9.000000e-02;}
	.st13{display:inline;fill:#FFCD9F;}
</style>
<g id="Camada_3">
	<rect class="st0" width="664" height="951"/>
</g>
<g id="Camada_2">
	<g>
		<path class="st1" d="M397.5,305h-117C215.6,305,163,252.4,163,187.5v0C163,122.6,215.6,70,280.5,70h117
			C462.4,70,515,122.6,515,187.5v0C515,252.4,462.4,305,397.5,305z"/>
		<path class="st2" d="M388.1,262.7H285.9c-41.3,0-74.9-33.5-74.9-74.9v0c0-41.3,33.5-74.9,74.9-74.9h102.3
			c41.3,0,74.9,33.5,74.9,74.9v0C463,229.2,429.5,262.7,388.1,262.7z"/>
		<path class="st3" d="M103,375"/>
		<path class="st3" d="M103,375"/>
		<path class="st1" d="M358.2,689h-38.4c-67.9,0-123-55.1-123-123V412c0-67.9,55.1-123,123-123h38.4c67.9,0,123,55.1,123,123v154
			C481.2,633.9,426.1,689,358.2,689z"/>
		<ellipse class="st4" cx="293.5" cy="173" rx="12.5" ry="28"/>
		<ellipse class="st4" cx="381.5" cy="173" rx="12.5" ry="28"/>
		<ellipse class="st1" cx="144" cy="187" rx="14" ry="46"/>
		<ellipse class="st1" cx="534" cy="187" rx="14" ry="46"/>
		<path class="st1" d="M157,565L157,565c-16.6,0-30-13.4-30-30V374c0-16.6,13.4-30,30-30h0c16.6,0,30,13.4,30,30v161
			C187,551.6,173.6,565,157,565z"/>
		<path class="st1" d="M522,565L522,565c-16.6,0-30-13.4-30-30V374c0-16.6,13.4-30,30-30l0,0c16.6,0,30,13.4,30,30v161
			C552,551.6,538.6,565,522,565z"/>
		<ellipse class="st5" cx="339" cy="779.5" rx="171" ry="27.5"/>
		<path class="st6" d="M372.2,633.8h-69.5c-35.8,0-64.9-29.1-64.9-64.9v-147c0-35.8,29.1-64.9,64.9-64.9h69.5
			c35.8,0,64.9,29.1,64.9,64.9v147C437.1,604.8,408.1,633.8,372.2,633.8z"/>
	</g>
</g>
<g id="Camada_4" class="st7">
	<path class="st8" d="M393.5,316h-117C211.6,316,159,263.4,159,198.5v0C159,133.6,211.6,81,276.5,81h117
		C458.4,81,511,133.6,511,198.5v0C511,263.4,458.4,316,393.5,316z"/>
	<path class="st9" d="M384.1,273.7H281.9c-41.3,0-74.9-33.5-74.9-74.9v0c0-41.3,33.5-74.9,74.9-74.9h102.3
		c41.3,0,74.9,33.5,74.9,74.9v0C459,240.2,425.5,273.7,384.1,273.7z"/>
	<path class="st10" d="M99,443"/>
	<path class="st10" d="M99,443"/>
	<path class="st8" d="M354.2,757h-38.4c-67.9,0-123-55.1-123-123V480c0-67.9,55.1-123,123-123h38.4c67.9,0,123,55.1,123,123v154
		C477.2,701.9,422.1,757,354.2,757z"/>
	<ellipse class="st11" cx="289.5" cy="184" rx="12.5" ry="28"/>
	<ellipse class="st11" cx="377.5" cy="184" rx="12.5" ry="28"/>
	<ellipse class="st8" cx="140" cy="198" rx="14" ry="46"/>
	<ellipse class="st8" cx="530" cy="198" rx="14" ry="46"/>
	<path class="st8" d="M153,633L153,633c-16.6,0-30-13.4-30-30V442c0-16.6,13.4-30,30-30h0c16.6,0,30,13.4,30,30v161
		C183,619.6,169.6,633,153,633z"/>
	<path class="st8" d="M518,633L518,633c-16.6,0-30-13.4-30-30V442c0-16.6,13.4-30,30-30l0,0c16.6,0,30,13.4,30,30v161
		C548,619.6,534.6,633,518,633z"/>
	<ellipse class="st12" cx="335" cy="847.5" rx="171" ry="27.5"/>
	<path class="st13" d="M368.2,701.8h-69.5c-35.8,0-64.9-29.1-64.9-64.9v-147c0-35.8,29.1-64.9,64.9-64.9h69.5
		c35.8,0,64.9,29.1,64.9,64.9v147C433.1,672.8,404.1,701.8,368.2,701.8z"/>
	<path class="st8" d="M390,342.5v3c0,1.9-1.6,3.5-3.5,3.5h-98c-1.9,0-3.5-1.6-3.5-3.5v-3c0-1.9,1.6-3.5,3.5-3.5h98
		C388.4,339,390,340.6,390,342.5z"/>
	<path class="st8" d="M390,326.5v3c0,1.9-1.6,3.5-3.5,3.5h-98c-1.9,0-3.5-1.6-3.5-3.5v-3c0-1.9,1.6-3.5,3.5-3.5h98
		C388.4,323,390,324.6,390,326.5z"/>
</g>
</svg>
